<svg xmlns="http://www.w3.org/2000/svg" style="display: none;">
  <symbol id="cart" viewBox="0 0 64 60" >
    <path d="m63.6057359 11.4078667c-.3864267-.5277226-1.0034489-.840019-1.6591424-.840019h-46.2030486c-.089517 0-.1788907.0054213-.2649701.0169772l-1.9014826-5.45983831c-.1970805-.56467312-.6310585-1.01478522-1.1887848-1.23349262l-9.58303696-3.74984037c-1.05615644-.41187754-2.24794891.10485971-2.66273451 1.15559683-.41406947 1.05130778.10455576 2.23914719 1.16013929 2.65230872l8.70362278 3.40572932 10.6533729 30.58750673c-.4702145.1632102-.8686722.5225866-1.0501409 1.0253425l-3.0802414 8.5227406c-.1887733.5225866-.111001 1.1032383.2102573 1.5573451.3208287.4541067.8426049.7244593 1.3997582.7244593h1.5817998c-.9802461 1.0865464-1.5817998 2.5174891-1.5817998 4.0909555 0 3.3837587 2.7639961 6.1363618 6.1604829 6.1363618s6.1604829-2.7526031 6.1604829-6.1363618c0-1.5734664-.6015538-3.0044091-1.5817998-4.0909555h13.431262c-.9806758 1.0865464-1.5823727 2.5174891-1.5823727 4.0909555 0 3.3837587 2.7634231 6.1363618 6.1606261 6.1363618 3.3970597 0 6.1604828-2.7526031 6.1604828-6.1363618 0-1.5734664-.6015537-3.0044091-1.5816565-4.0909555h1.9239692c.9451555 0 1.7111339-.7631219 1.7111339-1.7045766 0-.9414548-.7661216-1.704434-1.7111339-1.704434h-32.8166166l1.9076413-5.2780815c.2463506.1032904.5124665.1643515.7910432.1643515h30.1175024c.8928776 0 1.6830614-.5745171 1.9550496-1.4208134l8.5562421-26.591139c.2006611-.6225957.0905195-1.3024005-.2959071-1.830123zm-39.3059489 45.18298c-1.510043 0-2.7379287-1.223078-2.7379287-2.7272085 0-1.5041306 1.2278857-2.7273512 2.7379287-2.7273512s2.7379287 1.2232206 2.7379287 2.7273512c0 1.5041305-1.2278857 2.7272085-2.7379287 2.7272085zm22.5880552 0c-1.510043 0-2.7380719-1.223078-2.7380719-2.7272085 0-1.5041306 1.2280289-2.7273512 2.7380719-2.7273512 1.5098998 0 2.7379288 1.2232206 2.7379288 2.7273512 0 1.5041305-1.228029 2.7272085-2.7379288 2.7272085zm10.7639443-37.3297722h-10.4786359v-4.6022714h11.9593173zm-3.0173648 9.3748862h-7.4612711v-5.2840735h9.1618061zm-21.0374789 0v-5.2840735h9.4691714v5.2840735zm9.4691714 4.0912408v4.4317852h-9.4691714v-4.4317852zm-23.1410549-9.3753143h9.5652768v5.2840735h-7.7246657zm13.6718835-4.0908127v-4.6022714h9.4691714v4.6022714zm-4.1067499-4.6022714v4.6022714h-10.9903862l-1.6028542-4.6022714zm-6.2994131 18.0683984h6.2994131v4.4317852h-4.7559982zm23.9823708 4.4319278v-4.4317851h6.1457304l-1.4258255 4.4317851z"/>
  </symbol>
  <symbol id="cross" viewBox="0 0 64 64" >
    <path d="m3.28699879.46895369.12721477.11683275 28.58578644 28.58521356 28.5857864-28.58521356c.7810486-.78104859 2.0473786-.78104859 2.8284272 0 .7399407.73994076.778885 1.91542492.1168327 2.70121235l-.1168327.12721477-28.5852136 28.58578644 28.5852136 28.5857864c.7810485.7810486.7810485 2.0473786 0 2.8284272-.7399408.7399407-1.915425.778885-2.7012124.1168327l-.1272148-.1168327-28.5857864-28.5852136-28.58578644 28.5852136c-.78104858.7810485-2.04737854.7810485-2.82842712 0-.73994077-.7399408-.77888502-1.915425-.11683275-2.7012124l.11683275-.1272148 28.58521356-28.5857864-28.58521356-28.58578644c-.78104859-.78104858-.78104859-2.04737854 0-2.82842712.69883294-.69883295 1.78615984-.77239431 2.56678098-.22068409z"/>
  </symbol>
</svg>